<svg width="1034" height="977" viewBox="0 0 1034 977" fill="none" xmlns="http://www.w3.org/2000/svg">
<g opacity="0.6">
<circle cx="517" cy="458.967" r="335.55" stroke="#75DFFF" strokeOpacity="0.2"/>
<circle cx="517" cy="458.967" r="361.4" stroke="#75DFFF" strokeOpacity="0.18"/>
<circle cx="517" cy="458.967" r="387.25" stroke="#75DFFF" strokeOpacity="0.16"/>
<circle cx="517" cy="458.967" r="413.1" stroke="#75DFFF" strokeOpacity="0.14"/>
<circle cx="517" cy="460" r="438.95" stroke="#75DFFF" strokeOpacity="0.12"/>
<circle cx="517" cy="460" r="464.8" stroke="#75DFFF" strokeOpacity="0.1"/>
<circle cx="517" cy="460" r="490.65" stroke="#75DFFF" strokeOpacity="0.08"/>
<circle cx="517" cy="460" r="516.5" stroke="#75DFFF" strokeOpacity="0.06"/>
<circle opacity="0.3" cx="517.001" cy="458.966" r="286.952" stroke="#75DFFF"/>
<circle opacity="0.3" cx="517" cy="458.966" r="265.238" stroke="#75DFFF"/>
<circle opacity="0.3" cx="517" cy="458.966" r="218.708" stroke="#75DFFF"/>
<circle opacity="0.3" cx="517" cy="458.966" r="196.994" stroke="#75DFFF"/>
<circle opacity="0.3" cx="517" cy="458.965" r="174.246" stroke="#75DFFF"/>
<circle opacity="0.3" cx="517" cy="458.967" r="128.75" stroke="#75DFFF"/>
<circle opacity="0.3" cx="517.001" cy="458.966" r="106.002" stroke="#75DFFF"/>
<circle opacity="0.3" cx="517" cy="458.966" r="84.288" stroke="#75DFFF"/>
<circle opacity="0.3" cx="517" cy="458.966" r="37.758" stroke="#75DFFF"/>
<circle opacity="0.3" cx="517" cy="458.966" r="16.044" stroke="#75DFFF"/>
<circle cx="517.001" cy="458.966" r="309.7" stroke="#75DFFF" strokeOpacity="0.3"/>
<circle cx="517" cy="460" r="241.956" stroke="#75DFFF" strokeOpacity="0.3"/>
<circle cx="516.999" cy="458.965" r="151.998" stroke="#75DFFF" strokeOpacity="0.3"/>
<circle cx="517" cy="458.965" r="62.04" stroke="#75DFFF" strokeOpacity="0.3"/>
<circle cx="507.943" cy="634.864" r="9.306" fill="#00113A"/>
<circle cx="507.943" cy="634.864" r="8.806" stroke="#75DFFF" strokeOpacity="0.3"/>
<circle cx="509.355" cy="374.951" r="9.306" fill="#00113A"/>
<circle cx="509.355" cy="374.951" r="8.806" stroke="#75DFFF" strokeOpacity="0.3"/>
<circle cx="541.844" cy="487.957" r="9.306" fill="#00113A"/>
<circle cx="541.844" cy="487.957" r="8.806" stroke="#75DFFF" strokeOpacity="0.3"/>
<circle cx="636.944" cy="416.203" r="9.306" fill="#00113A"/>
<circle cx="636.944" cy="416.203" r="8.806" stroke="#75DFFF" strokeOpacity="0.3"/>
<circle cx="613.885" cy="496.432" r="9.306" fill="#00113A"/>
<circle cx="613.885" cy="496.432" r="8.806" stroke="#75DFFF" strokeOpacity="0.3"/>
<circle cx="482.516" cy="455.468" r="9.306" fill="#00113A"/>
<circle cx="482.516" cy="455.468" r="8.806" stroke="#75DFFF" strokeOpacity="0.3"/>
<circle cx="618.333" cy="267.309" r="9.306" fill="#00113A"/>
<circle cx="618.333" cy="267.309" r="8.806" stroke="#75DFFF" strokeOpacity="0.3"/>
<circle cx="523.481" cy="446.992" r="9.306" fill="#00113A"/>
<circle cx="523.481" cy="446.992" r="8.806" stroke="#75DFFF" strokeOpacity="0.3"/>
<circle cx="318.659" cy="461.118" r="9.306" fill="#00113A"/>
<circle cx="318.659" cy="461.118" r="8.806" stroke="#75DFFF" strokeOpacity="0.3"/>
</g>
</svg>
