<svg width="7" height="7" viewBox="0 0 7 7" fill="none" xmlns="http://www.w3.org/2000/svg">
<path d="M6.93526 3.62374C6.93526 4.27876 6.74099 4.91905 6.37708 5.46368C6.01317 6.00831 5.49598 6.43286 4.89082 6.68353C4.28565 6.93419 3.61973 6.99978 2.97729 6.87199C2.33485 6.7442 1.74471 6.42876 1.28154 5.96559C0.818368 5.50242 0.502933 4.91228 0.375145 4.26985C0.247356 3.62741 0.313007 2.96149 0.563674 2.35633C0.814341 1.75117 1.23882 1.23397 1.78345 0.870064C2.32809 0.506153 2.96837 0.31189 3.6234 0.31189C4.50176 0.31189 5.34416 0.660797 5.96526 1.28189C6.58635 1.90298 6.93526 2.74538 6.93526 3.62374Z" fill="white"/>
</svg>
