<svg width="32" height="32" viewBox="0 0 32 32" fill="none" xmlns="http://www.w3.org/2000/svg">
<g filter="url(#filter0_f_1021:1421)">
<path d="M22.2475 15.6237C22.2475 16.9337 21.8589 18.2143 21.1311 19.3036C20.4033 20.3928 19.3689 21.2419 18.1586 21.7433C16.9483 22.2446 15.6164 22.3758 14.3315 22.1202C13.0467 21.8646 11.8664 21.2338 10.94 20.3074C10.0137 19.3811 9.38282 18.2008 9.12724 16.9159C8.87166 15.631 9.00297 14.2992 9.5043 13.0889C10.0056 11.8786 10.8546 10.8442 11.9439 10.1163C13.0331 9.38853 14.3137 9 15.6237 9C17.3805 9 19.0653 9.69781 20.3075 10.94C21.5497 12.1822 22.2475 13.867 22.2475 15.6237Z" fill="#5AFFFA" fillOpacity="0.6"/>
</g>
<path d="M18.9353 15.6237C18.9353 16.2788 18.741 16.9191 18.3771 17.4637C18.0132 18.0083 17.496 18.4329 16.8908 18.6835C16.2857 18.9342 15.6197 18.9998 14.9773 18.872C14.3349 18.7442 13.7447 18.4288 13.2815 17.9656C12.8184 17.5024 12.5029 16.9123 12.3751 16.2698C12.2474 15.6274 12.313 14.9615 12.5637 14.3563C12.8143 13.7512 13.2388 13.234 13.7835 12.8701C14.3281 12.5062 14.9684 12.3119 15.6234 12.3119C16.5018 12.3119 17.3442 12.6608 17.9653 13.2819C18.5864 13.903 18.9353 14.7454 18.9353 15.6237Z" fill="white"/>
<defs>
<filter id="filter0_f_1021:1421" x="0" y="0" width="31.2476" height="31.2474" filterUnits="userSpaceOnUse" colorInterpolationFilters="sRGB">
<feFlood floodOpacity="0" result="BackgroundImageFix"/>
<feBlend mode="normal" in="SourceGraphic" in2="BackgroundImageFix" result="shape"/>
<feGaussianBlur stdDeviation="4.5" result="effect1_foregroundBlur_1021:1421"/>
</filter>
</defs>
</svg>
