<svg width="18" height="19" viewBox="0 0 18 19" fill="none" xmlns="http://www.w3.org/2000/svg">
<path fillRule="evenodd" clip-rule="evenodd" d="M9.01144 0.0358062C6.87217 0.0334581 4.80204 0.853908 3.17203 2.35013C1.54203 3.84636 0.458683 5.92055 0.116159 8.201C-0.226365 10.4815 0.194317 12.8191 1.30281 14.795C2.4113 16.7709 4.13515 18.256 6.16542 18.984C6.61305 19.0735 6.77884 18.7692 6.77884 18.5125C6.77884 18.2559 6.77884 17.6711 6.77884 16.8594C4.27544 17.4562 3.74492 15.5584 3.74492 15.5584C3.57811 14.9702 3.22373 14.4649 2.74467 14.1321C1.93231 13.5353 2.81098 13.5353 2.81098 13.5353C3.09575 13.5787 3.36763 13.6916 3.60603 13.8653C3.84444 14.039 4.04312 14.269 4.18702 14.5379C4.3093 14.7773 4.47414 14.9883 4.67211 15.1588C4.87008 15.3293 5.09728 15.4558 5.34065 15.5312C5.58402 15.6066 5.83879 15.6294 6.09033 15.5982C6.34187 15.5671 6.58524 15.4825 6.80646 15.3495C6.84114 14.8586 7.03714 14.3972 7.35909 14.0485C5.35858 13.8039 3.25861 12.9683 3.25861 9.24434C3.24487 8.27931 3.5753 7.34554 4.18149 6.63635C3.91096 5.79736 3.94253 4.87918 4.26991 4.06417C4.26991 4.06417 5.02701 3.80157 6.74567 5.0608C8.22151 4.62321 9.77926 4.62321 11.2551 5.0608C12.9738 3.80157 13.7253 4.06417 13.7253 4.06417C14.0561 4.87803 14.0897 5.79688 13.8193 6.63635C14.4255 7.34554 14.7559 8.27931 14.7422 9.24434C14.7422 12.9803 12.6367 13.7979 10.6306 14.0187C10.8457 14.2522 11.0118 14.5329 11.1177 14.8418C11.2235 15.1507 11.2666 15.4806 11.244 15.8091C11.244 17.1101 11.244 18.1604 11.244 18.4767C11.244 18.793 11.4043 19.0377 11.863 18.9482C13.8869 18.2133 15.6032 16.7259 16.7059 14.7513C17.8086 12.7767 18.2259 10.4433 17.8833 8.16724C17.5408 5.89121 16.4607 3.8206 14.8358 2.32471C13.2108 0.828814 11.1467 0.00492848 9.01144 0V0.0358062Z" fill="white"/>
</svg>
