<svg width="998" height="951" viewBox="0 0 998 951" fill="none" xmlns="http://www.w3.org/2000/svg" xmlns:xlink="http://www.w3.org/1999/xlink">
<rect opacity="0.7" y="0.34375" width="998" height="950.265" fill="url(#pattern0)"/>
<circle cx="475" cy="456.268" r="237.4" stroke="#75DFFF" stroke-opacity="0.2"/>
<circle cx="475" cy="456.268" r="255.7" stroke="#75DFFF" stroke-opacity="0.18"/>
<circle cx="475" cy="456.268" r="274" stroke="#75DFFF" stroke-opacity="0.16"/>
<circle cx="475" cy="456.268" r="292.3" stroke="#75DFFF" stroke-opacity="0.14"/>
<circle cx="475" cy="457" r="310.6" stroke="#75DFFF" stroke-opacity="0.12"/>
<circle cx="475" cy="457" r="328.9" stroke="#75DFFF" stroke-opacity="0.1"/>
<circle cx="475" cy="457" r="347.2" stroke="#75DFFF" stroke-opacity="0.08"/>
<circle cx="475" cy="457" r="365.5" stroke="#75DFFF" stroke-opacity="0.06"/>
<circle opacity="0.3" cx="475" cy="456.268" r="202.996" stroke="#75DFFF"/>
<circle opacity="0.3" cx="475" cy="456.268" r="187.624" stroke="#75DFFF"/>
<circle opacity="0.3" cx="475" cy="456.268" r="154.684" stroke="#75DFFF"/>
<circle opacity="0.3" cx="475" cy="456.268" r="139.312" stroke="#75DFFF"/>
<circle opacity="0.3" cx="475" cy="456.268" r="123.208" stroke="#75DFFF"/>
<circle opacity="0.3" cx="475" cy="456.268" r="91" stroke="#75DFFF"/>
<circle opacity="0.3" cx="475" cy="456.268" r="74.896" stroke="#75DFFF"/>
<circle opacity="0.3" cx="475" cy="456.268" r="59.524" stroke="#75DFFF"/>
<circle opacity="0.3" cx="475" cy="456.268" r="26.584" stroke="#75DFFF"/>
<circle opacity="0.3" cx="475" cy="456.268" r="11.212" stroke="#75DFFF"/>

<circle cx="475" cy="456.268" r="216.6" stroke="#5A91FF" stroke-width="6"/>

<g filter="url(#filter1_d_1000:32143)">
<circle cx="475" cy="456.268" r="217.6" stroke="#5A91FF" stroke-width="4" shape-rendering="crispEdges"/>
</g>
<circle cx="475" cy="457" r="171.288" stroke="#FFA641" stroke-width="2"/>
<circle cx="475" cy="456.267" r="107.604" stroke="#06D6A0" stroke-width="2"/>
<circle cx="475" cy="456.267" r="43.92" stroke="#F71735" stroke-width="2"/>
<circle cx="468.588" cy="579.588" r="6.088" fill="#00113A" stroke="#FFA641"/>
<circle cx="469.588" cy="395.588" r="6.088" fill="#00113A" stroke="#06D6A0"/>
<circle cx="492.588" cy="475.588" r="6.088" fill="#00113A" stroke="#F71735"/>
<circle cx="559.912" cy="424.792" r="6.088" fill="#00113A" stroke="#06D6A0"/>
<circle cx="543.588" cy="481.588" r="6.088" fill="#00113A" stroke="#06D6A0"/>
<circle cx="450.588" cy="452.588" r="6.088" fill="#00113A" stroke="#F71735"/>
<circle cx="546.736" cy="319.385" r="6.088" fill="#00113A" stroke="#FFA641"/>
<circle cx="479.588" cy="446.588" r="6.088" fill="#00113A" stroke="#F71735"/>
<circle cx="334.588" cy="456.588" r="6.088" fill="#00113A" stroke="#FFA641"/>
</svg>