<svg width="142" height="169" viewBox="0 0 142 169" fill="none" xmlns="http://www.w3.org/2000/svg">
<path d="M136.477 147.83L104.041 166.561L93.4379 107.955L105.785 115.085H105.792C105.806 115.092 105.82 115.092 105.834 115.099C105.954 115.162 106.087 115.204 106.235 115.211H106.256C106.404 115.211 106.537 115.169 106.664 115.106C106.678 115.099 106.692 115.099 106.713 115.092H106.72L128.298 102.618L136.477 147.83ZM96.6808 158.187L80.0308 148.576L93.3128 140.905L96.6808 158.187ZM62.9866 110.459C62.853 111.091 62.628 111.52 62.3538 111.682L59.3444 113.419L63.6334 90.2851L66.4249 91.8953L62.9795 110.457L62.9866 110.459ZM76.2757 109.116L43.9873 127.762L8.33105 107.173L28.9195 95.2905L37.6453 100.374H37.6523C37.6594 100.381 37.6664 100.381 37.6664 100.381C37.7789 100.444 37.8984 100.487 38.032 100.494H38.1023C38.25 100.494 38.3836 100.451 38.5101 100.388C38.5242 100.381 38.5453 100.381 38.5594 100.374H38.5664L49.8445 93.8631L52.8256 95.5858L51.3209 109.522C51.3209 109.529 51.328 109.536 51.3209 109.543C51.1241 110.787 51.4194 112.271 51.8131 113.206C52.3264 114.423 53.0858 115.351 54.2037 116.11L54.2107 116.117C54.7592 116.49 55.5748 116.834 56.4046 116.834C56.728 116.834 57.0585 116.785 57.3679 116.659C57.5366 116.595 57.6773 116.49 57.8249 116.398C57.853 116.384 57.8952 116.391 57.9233 116.37L63.2672 113.284C64.0266 112.848 64.5398 112.018 64.7859 110.83V110.823C64.7859 110.816 64.793 110.816 64.793 110.809L66.1852 103.299L76.268 109.121L76.2757 109.116ZM59.2671 14.018C60.7647 15.0938 61.9179 16.4156 62.9936 18.286C64.0764 20.1634 64.6389 21.8156 64.8217 23.6509C64.9272 24.6985 64.9905 27.2368 63.3241 28.193L60.9826 29.543C61.2639 28.1859 61.1514 26.7586 60.9334 25.5985C60.1318 21.3796 57.2209 17.0695 53.8459 15.1219C53.2904 14.8055 52.749 14.5735 52.2146 14.3977L54.5842 13.0266C56.2506 12.0633 58.4162 13.3922 59.267 14.004L59.2671 14.018ZM79.3064 54.315L86.6753 58.147L78.5683 62.8299C78.6245 62.5205 78.6597 62.19 78.6456 61.7822C78.6456 61.7681 78.6315 61.7471 78.6315 61.733C78.6315 61.7189 78.6386 61.7049 78.6386 61.6838C78.3644 59.8276 77.148 57.8307 75.6011 56.7267C75.587 56.7197 75.573 56.7197 75.5659 56.7127C75.5519 56.7057 75.5519 56.6916 75.5378 56.6846L75.3761 56.5861L79.3136 54.3151L79.3064 54.315ZM95.0073 60.2494C94.9792 60.2634 94.9581 60.2916 94.937 60.3127C94.8948 60.3408 94.8596 60.3619 94.8245 60.397C94.8175 60.4041 94.8104 60.4041 94.8034 60.4111C94.7893 60.4252 94.7893 60.4392 94.7753 60.4533C94.7401 60.4955 94.719 60.5377 94.6909 60.5869C94.6768 60.615 94.6487 60.6361 94.6347 60.6642C93.6643 62.8087 92.1526 66.9993 91.1612 69.7767L90.676 71.1197C89.5651 74.1853 88.4401 77.2438 87.287 80.2955L84.7558 81.758L66.0736 72.1745L90.712 57.9503L95.0925 60.2003L95.0073 60.2494ZM53.2203 91.897L53.0375 93.5634L51.6875 92.7829L53.2203 91.897ZM39.3477 95.5531L53.7267 87.2562L53.4665 89.6187L39.165 97.8733L39.3477 95.5531ZM45.6688 20.7901C45.3805 20.9237 45.0852 21.0503 44.8039 21.205L39.4601 24.3129C39.4531 24.3199 39.446 24.3269 39.439 24.334C38.7007 24.7418 37.9835 25.234 37.2594 25.8527C35.7969 27.1113 34.5874 28.6089 33.4554 30.5707C31.1703 34.5363 30.221 38.6286 29.6515 41.7503C28.4913 48.0995 28.2734 55.9323 28.9905 65.0387C28.9905 65.0457 28.9976 65.0528 28.9976 65.0598V65.0739C29.1452 66.3606 29.5601 67.809 30.214 69.1872L13.8241 78.6513L13.9014 23.2797L46.1898 4.63346V16.8749C45.6344 18.1265 45.557 19.5398 45.6695 20.8124L45.6688 20.7901ZM55.0704 50.3432C54.1282 46.3353 51.0908 33.6228 50.0712 31.0346C49.9798 30.6268 49.804 30.1557 49.5509 29.6424C50.5705 30.8377 51.7165 31.8433 52.9259 32.5464C53.7626 33.0315 54.5853 33.3339 55.3728 33.4885C56.6174 38.305 57.8268 43.2127 58.9728 48.0995L55.0775 50.3495L55.0704 50.3432ZM58.3539 64.3002L54.782 61.6353C55.0211 61.7619 55.2531 61.9095 55.4992 62.0009C55.5062 62.0009 55.5062 62.008 55.5133 62.008L55.5344 62.015L59.4297 63.6744L58.354 64.2931L58.3539 64.3002ZM50.964 57.9158C50.9711 57.9228 50.9781 57.9228 50.9781 57.9299C51.3367 58.633 51.8711 59.301 52.4758 59.9198L50.6477 58.5557C50.6266 58.5416 50.5984 58.5346 50.5703 58.5206C50.5492 58.5065 50.5352 58.4854 50.507 58.4713C49.9445 58.1901 49.7406 57.3463 49.825 56.6573L49.9234 56.1721L50.957 57.9159L50.964 57.9158ZM52.7851 67.5204L45.0789 61.7759C45.0578 61.7618 45.0297 61.7548 45.0086 61.7407C44.9875 61.7267 44.9664 61.6986 44.9453 61.6915C44.3828 61.4103 44.1789 60.5665 44.2633 59.8775L46.2743 49.9354C46.3165 50.0197 46.3586 50.1041 46.4079 50.2096C46.4149 50.2236 46.429 50.2307 46.436 50.2377C46.45 50.2588 46.45 50.2799 46.4571 50.301L48.5242 53.7955L48.0109 56.3339V56.369C48.0109 56.3831 48.0039 56.3901 47.9968 56.3972C47.8281 57.6628 48.25 59.1886 49.4734 59.955C49.5015 59.9832 49.5156 60.0113 49.5437 60.0324L56.6102 65.2988L52.7852 67.5067L52.7851 67.5204ZM41.7531 25.3194C42.182 25.1718 42.5968 25.0382 43.0257 25.0241C43.0609 25.0241 43.082 25.003 43.1171 25.003C43.1453 24.996 43.1804 25.0101 43.2085 24.996C44.0171 24.7991 44.8257 25.6429 45.1632 26.2686C45.1772 26.2827 45.1913 26.2897 45.2053 26.3108C45.2194 26.339 45.2264 26.3671 45.2405 26.3882C46.6679 28.2586 48.1725 30.6211 48.2991 31.507C48.3061 31.5492 48.3272 31.5844 48.3342 31.6195C48.3413 31.6547 48.3413 31.6828 48.3483 31.718C49.2623 34.0313 52.1522 45.9844 53.5514 51.9824C53.5514 51.9824 53.5514 51.9894 53.5584 51.9894C53.5654 52.0175 53.5795 52.0386 53.5865 52.0667C53.5936 52.0949 53.6076 52.123 53.6217 52.1511C53.6357 52.1792 53.6357 52.2074 53.6498 52.2355C53.6498 52.2425 53.6568 52.2425 53.6639 52.2495C53.6779 52.2636 53.685 52.2847 53.699 52.2988C53.7201 52.3269 53.7482 52.348 53.7693 52.3761C53.8256 52.4324 53.8818 52.4886 53.9451 52.5308C53.9592 52.5378 53.9662 52.5589 53.9873 52.5659L68.9638 61.4886C70.0888 62.3042 71.0169 63.8019 71.2279 65.1589C71.2419 65.5808 71.2138 65.8972 71.0591 66.1925C70.9748 66.3402 70.8271 66.4456 70.7076 66.4738L56.2372 60.3214C56.2302 60.3214 56.2302 60.3214 56.2231 60.3143C56.2161 60.3143 56.2161 60.3073 56.2091 60.3073C54.7536 59.7378 53.263 58.3878 52.588 57.0378C52.581 57.0308 52.5739 57.0237 52.5669 57.0097C52.5599 56.9956 52.5599 56.9886 52.5528 56.9745L48.0599 49.3807C47.6872 48.558 47.3286 48.0377 46.9278 47.7565C46.513 47.4612 46.1333 47.4541 45.8872 47.4963C45.5216 47.5596 45.2122 47.7846 44.9591 48.1572C44.7552 48.4596 44.6145 48.7971 44.5302 49.219L42.4418 59.5479V59.5831C42.4418 59.5901 42.4348 59.6041 42.4348 59.6112C42.266 60.8768 42.6879 62.4026 43.9113 63.1761C43.9395 63.1972 43.9535 63.2323 43.9817 63.2534L51.0481 68.5199L44.6847 72.1902C44.6707 72.1973 44.6636 72.2113 44.6425 72.2254C44.5793 72.2676 44.516 72.3238 44.4668 72.3801C44.4386 72.4152 44.4105 72.4504 44.3824 72.4856C44.3472 72.5418 44.3191 72.5981 44.298 72.6543C44.2769 72.7106 44.2558 72.7738 44.2488 72.8301C44.2418 72.8582 44.2277 72.8793 44.2277 72.9074V72.9145L43.855 77.3794L35.3542 72.4645C34.0323 71.691 32.9917 70.4465 32.2323 69.0824V69.0754L32.2252 69.0684C31.4518 67.6762 30.9877 66.1504 30.833 64.8567C30.1299 55.9271 30.3409 48.2559 31.4659 42.0687C32.2745 37.6461 33.3784 34.3836 35.0518 31.4797C36.0714 29.7078 37.1542 28.3648 38.4549 27.2468C39.5377 26.3187 40.5854 25.6999 41.7525 25.2992L41.7531 25.3194ZM45.7251 22.8172C45.8095 22.768 45.9009 22.7328 45.9923 22.6906C46.2384 23.7102 46.5899 24.7227 47.047 25.7071C46.9204 25.5383 46.8149 25.3977 46.7235 25.2782C46.2735 24.4836 45.5704 23.7735 44.7336 23.3938L45.725 22.8242L45.7251 22.8172ZM38.4617 93.9316L14.7377 80.2347L31.1066 70.7847C31.9644 72.0925 33.0542 73.2527 34.4042 74.0472H34.4112L52.7694 84.6643C52.7835 84.6713 52.8046 84.6713 52.8186 84.6784C52.8397 84.6924 52.8608 84.7135 52.8819 84.7206C53.1561 84.8331 53.3319 85.0299 53.4796 85.2549L38.4537 93.9315L38.4617 93.9316ZM63.6689 71.4244C63.6478 71.4385 63.6338 71.4596 63.6127 71.4807C63.5705 71.5088 63.5353 71.5369 63.5002 71.565C63.4721 71.5861 63.451 71.6142 63.4228 71.6424C63.3947 71.6775 63.3736 71.7127 63.3525 71.7478C63.3385 71.7689 63.3174 71.783 63.3033 71.8041C63.2963 71.8182 63.2963 71.8392 63.2892 71.8533C63.2752 71.8814 63.2611 71.9166 63.2541 71.9447C63.24 71.9869 63.233 72.0291 63.226 72.0713C63.2189 72.1205 63.2119 72.1627 63.2119 72.2119C63.2119 72.233 63.2049 72.2471 63.2049 72.2682L63.3525 75.369C63.3525 75.4112 63.3736 75.4464 63.3807 75.4885C63.3877 75.5448 63.4017 75.601 63.4228 75.6573C63.4439 75.7135 63.4791 75.7698 63.5142 75.819C63.5424 75.8682 63.5705 75.9104 63.6057 75.9526C63.6549 76.0018 63.7111 76.044 63.7674 76.0792C63.7955 76.1003 63.8236 76.1284 63.8517 76.1495L87.5901 88.3276C87.5972 88.3346 87.5972 88.3276 87.6042 88.3346C87.6112 88.3416 87.6183 88.3416 87.6183 88.3487L88.6378 88.8198C88.6448 88.8198 88.6448 88.8198 88.6519 88.8268C88.6589 88.8268 88.6589 88.8338 88.6659 88.8338C88.7784 88.883 88.898 88.9041 89.0175 88.9041H89.0245C89.1792 88.9041 89.3409 88.8619 89.4886 88.7776L116.031 73.4565C116.038 73.4565 116.038 73.4495 116.045 73.4424L138.652 85.2058L106.414 103.818L47.055 72.937L61.5465 64.5699L69.6044 68.001L63.6629 71.4322L63.6689 71.4244ZM115.378 70.4471L91.3241 84.3337L98.6366 64.2313L122.69 50.3447L115.378 70.4471ZM121.839 46.8923C122.071 47.1384 122.31 47.3774 122.535 47.6235C122.669 47.7712 122.817 47.9188 122.957 48.0665L98.0596 62.4384C97.8275 62.1993 97.5955 61.9603 97.3705 61.7071C97.2369 61.5525 97.0892 61.4118 96.9486 61.2642L121.846 46.8852L121.839 46.8923ZM84.3632 83.6519C84.3843 83.6589 84.4054 83.6589 84.4194 83.6659C84.4405 83.68 84.4616 83.694 84.4897 83.7081C84.9186 83.8558 85.9663 84.1792 86.5498 84.1792H86.578C87.4428 84.1651 88.0405 83.223 88.5045 82.3088L88.4834 82.2948C88.4975 82.2596 88.5397 82.2455 88.5467 82.2104C88.6732 81.8869 88.7857 81.5565 88.9123 81.233C88.9193 81.2119 88.9334 81.1838 88.9404 81.1627C90.1217 78.0408 91.2748 74.9119 92.4069 71.7689L92.892 70.4189C93.7076 68.1548 94.8609 64.9485 95.7679 62.7197C95.8452 62.8041 95.9226 62.8815 95.9929 62.9588C96.2601 63.2612 96.5413 63.5424 96.8226 63.8307L88.7226 86.0985C88.7155 86.1125 88.7226 86.1196 88.7155 86.1336C88.7085 86.1477 88.7015 86.1547 88.7015 86.1618C88.6452 86.3516 88.5679 86.5344 88.5046 86.7172L88.4202 86.675L65.1822 74.7571L65.133 73.7868L84.3498 83.6446L84.3632 83.6519ZM73.0921 57.4043L74.5335 58.2621C75.6656 59.0777 76.5866 60.5824 76.7976 61.9395C76.8046 62.291 76.7765 62.9942 76.4038 63.2051L73.0779 65.1246V65.0121C73.0779 64.991 73.0709 64.977 73.0639 64.9629C73.0639 64.9418 73.0709 64.9277 73.0639 64.9137C72.7897 63.0575 71.5733 61.0606 70.0264 59.9567C70.0123 59.9496 70.0053 59.9496 69.9912 59.9426C69.9772 59.9356 69.9772 59.9215 69.9631 59.9145L56.2872 51.7724L60.0208 49.6138L73.0848 57.3974L73.0921 57.4043ZM58.3406 30.9659C56.9484 32.4776 54.7406 31.451 53.8616 30.9377C50.9647 29.2643 48.3562 25.3901 47.6671 21.7197C47.4281 20.433 47.2031 18.0776 48.4687 16.7136C49.0101 16.13 49.671 15.9261 50.332 15.9261C51.3726 15.9261 52.3992 16.4253 52.9406 16.7417C55.8375 18.4152 58.4461 22.2893 59.1421 25.9597C59.3812 27.2464 59.6062 29.6018 58.3476 30.9659L58.3406 30.9659ZM43.4836 1.99666L45.2765 3.03026L12.9881 21.6693L11.1952 20.6357L43.4836 1.99666ZM77.212 113.471L44.9236 132.117V129.375L77.212 110.736V113.478V113.471ZM14.0356 84.4871C14.0074 84.473 13.9723 84.466 13.9442 84.4589C13.916 84.4449 13.8879 84.4238 13.8598 84.4097C13.8317 84.4027 13.8035 84.4027 13.7754 84.4027C13.7121 84.3886 13.6559 84.3816 13.5926 84.3816C13.5363 84.3816 13.4731 84.3816 13.4168 84.3957C13.3606 84.4097 13.3043 84.4238 13.2551 84.4449C13.1988 84.466 13.1426 84.4941 13.0934 84.5222C13.0442 84.5504 13.002 84.5855 12.9598 84.6277C12.9106 84.6699 12.8754 84.7121 12.8402 84.7683C12.8192 84.7894 12.7981 84.8105 12.784 84.8316C12.7629 84.8597 12.7629 84.8949 12.7488 84.923C12.7348 84.9511 12.7137 84.9793 12.6996 85.0074L5.61914 106.903V106.924C5.61211 106.952 5.60508 106.98 5.60508 107.015C5.59102 107.071 5.59102 107.128 5.59102 107.177C5.59102 107.212 5.58399 107.247 5.58399 107.282C5.59102 107.31 5.59805 107.331 5.60508 107.36C5.61914 107.416 5.63321 107.465 5.6543 107.514C5.66836 107.549 5.67539 107.592 5.69649 107.627C5.70352 107.634 5.70352 107.641 5.70352 107.648C5.71055 107.662 5.72461 107.669 5.73164 107.676C5.75977 107.725 5.79492 107.76 5.83711 107.803C5.8793 107.852 5.92149 107.887 5.97071 107.922C5.9918 107.943 6.01289 107.964 6.03399 107.978L6.04102 107.985L43.0814 129.368V132.11L2.04682 108.422L10.2312 82.6241C10.2453 82.5749 10.2383 82.5327 10.2453 82.4835C10.2523 82.4343 10.2734 82.3921 10.2734 82.3429V22.2391L12.0664 23.2727V60.1367L11.989 80.2463C11.989 80.2673 11.9961 80.2814 12.0031 80.3025C12.0031 80.3447 12.0101 80.3869 12.0172 80.422C12.0242 80.4642 12.0383 80.5064 12.0523 80.5486C12.0664 80.5838 12.0805 80.6259 12.1015 80.6611C12.1086 80.6822 12.1086 80.6963 12.1226 80.7174C12.1297 80.7314 12.1437 80.7384 12.1508 80.7455C12.1719 80.7806 12.2 80.8158 12.2281 80.8509C12.2703 80.9002 12.3195 80.9353 12.3687 80.9775C12.3969 80.9986 12.425 81.0338 12.4601 81.0549L12.4672 81.0619L37.5268 95.5323L37.3299 98.0424L14.0487 84.4862L14.0356 84.4871ZM14.0988 86.6597L27.0927 94.2253L8.11528 105.18L14.1059 86.6597H14.0988ZM57.432 113.674C57.3477 114.075 57.1438 114.778 56.7219 114.94C56.3914 115.073 55.7445 114.919 55.2805 114.595H55.2734C54.4297 114.026 53.9164 113.4 53.5367 112.5C53.1922 111.677 53.0375 110.538 53.1711 109.786V109.758C53.1711 109.751 53.1781 109.737 53.1781 109.729L54.7461 95.217V95.2099L55.625 87.0325V87.0255C55.6883 86.5826 55.6812 86.1115 55.6039 85.6544L61.953 89.3248L57.432 113.688L57.432 113.674ZM92.6508 105.363C92.6087 105.342 92.5665 105.335 92.5243 105.321C92.468 105.3 92.4118 105.272 92.3485 105.265C92.2852 105.251 92.2219 105.258 92.1516 105.258C92.1094 105.258 92.0672 105.244 92.025 105.251C92.011 105.258 92.004 105.265 91.9899 105.265C91.9266 105.279 91.8704 105.307 91.8071 105.335C91.7579 105.356 91.7086 105.377 91.6594 105.405C91.6172 105.433 91.5821 105.483 91.5399 105.518C91.4907 105.567 91.4485 105.609 91.4133 105.665C91.4063 105.68 91.3922 105.68 91.3852 105.694C91.3641 105.736 91.3571 105.778 91.343 105.82C91.3219 105.876 91.2938 105.94 91.2797 106.003C91.2657 106.066 91.2727 106.13 91.2727 106.2C91.2727 106.242 91.2657 106.284 91.2727 106.326L102.108 166.225L79.1164 152.95V150.18L97.525 160.804C97.5391 160.811 97.5602 160.811 97.5742 160.818C97.7008 160.881 97.8344 160.93 97.982 160.93C98.0383 160.93 98.1016 160.923 98.1578 160.916C98.2281 160.902 98.2914 160.867 98.3547 160.832C98.3899 160.818 98.425 160.811 98.4602 160.79C98.5867 160.712 98.6922 160.614 98.7625 160.487L98.7836 160.466C98.8047 160.424 98.8117 160.382 98.8258 160.34C98.8469 160.283 98.875 160.22 98.8891 160.157C98.9031 160.087 98.8961 160.023 98.8891 159.953C98.8891 159.911 98.8961 159.869 98.8891 159.826L87.7024 102.41C87.6954 102.396 87.6954 102.389 87.6884 102.382C87.6743 102.312 87.6392 102.255 87.611 102.192C87.5899 102.143 87.5688 102.094 87.5407 102.051C87.5126 102.009 87.4634 101.974 87.4282 101.939C87.379 101.89 87.3368 101.84 87.2735 101.805C87.2665 101.798 87.2595 101.791 87.2524 101.784L45.676 77.7794L45.9573 74.4465L105.519 105.434L105.358 112.697L92.638 105.349L92.6508 105.363ZM107.22 112.669L107.381 105.426L139.634 86.7929L139.472 94.035L107.205 112.669H107.22ZM141.301 94.7037C141.308 94.6685 141.322 94.6404 141.322 94.5982L141.526 85.1974C141.526 85.1763 141.512 85.1552 141.512 85.1341C141.505 85.0849 141.498 85.0286 141.484 84.9794C141.477 84.9442 141.47 84.9091 141.456 84.8669C141.449 84.8388 141.427 84.8106 141.413 84.7755C141.406 84.7544 141.406 84.7333 141.392 84.7122C141.378 84.6911 141.357 84.677 141.343 84.656C141.322 84.6278 141.301 84.5927 141.28 84.5645C141.252 84.5364 141.224 84.5153 141.195 84.4942C141.16 84.4591 141.118 84.431 141.076 84.4028C141.055 84.3888 141.041 84.3677 141.02 84.3606L116.874 71.7957C116.917 71.6692 116.966 71.5496 117.008 71.4231C117.008 71.4231 117.015 71.4231 117.015 71.4161L125.305 48.6281V48.621L125.312 48.614C125.319 48.5999 125.312 48.5859 125.319 48.5718C125.34 48.5156 125.34 48.4593 125.347 48.4031C125.354 48.3538 125.368 48.3116 125.368 48.2624C125.368 48.2484 125.361 48.2343 125.361 48.2132C125.354 48.164 125.34 48.1148 125.326 48.0585C125.312 48.0093 125.312 47.9601 125.291 47.9109C125.284 47.8968 125.27 47.8827 125.263 47.8616C125.256 47.8476 125.256 47.8335 125.249 47.8265C125.228 47.7843 125.192 47.7632 125.164 47.7281C125.157 47.7281 125.157 47.721 125.157 47.721C125.129 47.6929 125.115 47.6507 125.087 47.6226C124.679 47.2288 124.299 46.814 123.92 46.3921C123.512 45.9421 123.104 45.4921 122.661 45.0702C122.647 45.0562 122.633 45.0562 122.612 45.0421C122.563 44.9999 122.506 44.9718 122.45 44.9437C122.401 44.9156 122.352 44.8874 122.296 44.8663C122.239 44.8523 122.183 44.8452 122.127 44.8382C122.071 44.8312 122.007 44.8241 121.951 44.8241C121.895 44.8312 121.839 44.8452 121.789 44.8593C121.726 44.8734 121.663 44.8874 121.607 44.9226C121.592 44.9296 121.571 44.9296 121.557 44.9366L97.0035 59.1116L91.1114 56.0882C91.0832 56.0741 91.0551 56.0741 91.02 56.0601C90.9567 56.039 90.9004 56.0179 90.8372 56.0108C90.7809 56.0038 90.7246 55.9968 90.6684 55.9968C90.6051 55.9968 90.5489 56.0038 90.4856 56.0179C90.4293 56.0319 90.3731 56.053 90.3168 56.0741C90.2887 56.0882 90.2536 56.0882 90.2254 56.1022L88.5731 57.0585L79.7137 52.446C79.6855 52.4319 79.6504 52.4319 79.6223 52.4179C79.566 52.3968 79.5027 52.3757 79.4465 52.3687C79.3902 52.3616 79.327 52.3546 79.2707 52.3546C79.2145 52.3546 79.1582 52.3616 79.102 52.3757C79.0387 52.3898 78.9824 52.4108 78.9262 52.439C78.898 52.453 78.8629 52.453 78.8348 52.4671L73.5613 55.5116L60.8488 47.939C59.7168 43.1156 58.5284 38.2781 57.2979 33.518C57.8675 33.4195 58.3948 33.2086 58.8729 32.8922C58.894 32.8851 58.9151 32.8851 58.9292 32.8781L64.2658 29.7985C66.8674 28.3008 66.8182 24.8695 66.6775 23.4704C66.4665 21.3892 65.8126 19.4485 64.6104 17.3603C63.408 15.2791 62.058 13.7392 60.3634 12.5158C59.2173 11.6931 56.2783 9.9353 53.6768 11.44L48.3402 14.5196C48.3191 14.5337 48.305 14.5548 48.2839 14.5688C48.2066 14.611 48.1292 14.6602 48.0519 14.7095V3.02349C48.0519 3.0024 48.0448 2.98834 48.0378 2.96724C48.0378 2.92506 48.0308 2.88287 48.0238 2.84771C48.0167 2.80553 48.0027 2.76334 47.9886 2.72115C47.9745 2.67896 47.9605 2.64381 47.9394 2.60865C47.9323 2.59459 47.9323 2.57349 47.9183 2.55943C47.9112 2.54537 47.8902 2.53131 47.8831 2.51724C47.862 2.48209 47.8339 2.45396 47.8128 2.41881C47.7847 2.38365 47.7566 2.35553 47.7214 2.3274C47.6933 2.29928 47.6581 2.27818 47.623 2.25006C47.6089 2.23599 47.6019 2.22193 47.5808 2.2149L43.9387 0.1125C43.9035 0.0914076 43.8684 0.0914076 43.8262 0.0773442C43.7699 0.0492192 43.7066 0.028125 43.6504 0.0140634C43.5941 -4.19095e-08 43.5379 0 43.4746 0C43.4184 0 43.3551 -4.19095e-08 43.2988 0.0140634C43.2355 0.028125 43.1793 0.0492192 43.116 0.0773442C43.0809 0.0914076 43.0457 0.0914076 43.0105 0.1125L8.86634 19.8351C8.85228 19.8492 8.83821 19.8632 8.82415 19.8703C8.78899 19.8914 8.76087 19.9195 8.72571 19.9476C8.69056 19.9757 8.66243 20.0039 8.63431 20.039C8.60618 20.0671 8.58509 20.1023 8.55696 20.1374C8.5429 20.1515 8.52884 20.1585 8.52181 20.1796C8.51478 20.2007 8.51478 20.2148 8.50775 20.2359C8.48665 20.271 8.47259 20.3062 8.45853 20.3484C8.44446 20.3906 8.4304 20.4328 8.42337 20.4749C8.41634 20.5171 8.40931 20.5523 8.40931 20.5945C8.40931 20.6156 8.39525 20.6296 8.39525 20.6437V82.2019L0.028125 108.575C0.0210942 108.604 0.0281245 108.632 0.0210937 108.66C0.00703035 108.723 0 108.786 0 108.85C0 108.906 -8.16397e-07 108.962 0.0140608 109.018C0.0210934 109.075 0.0421888 109.131 0.0632812 109.187C0.0843754 109.243 0.105469 109.293 0.140625 109.342C0.16875 109.391 0.203905 109.433 0.246094 109.476C0.28828 109.525 0.330469 109.56 0.386719 109.602C0.407811 109.616 0.428906 109.644 0.45 109.658L43.524 134.515H43.531C43.5451 134.522 43.5592 134.522 43.5732 134.529C43.6998 134.592 43.8334 134.634 43.981 134.634H43.9881C44.1357 134.634 44.2763 134.592 44.3959 134.529C44.4099 134.522 44.424 134.522 44.4381 134.515H44.4451L78.5821 114.806C78.6172 114.785 78.6383 114.757 78.6665 114.729C78.7157 114.687 78.7649 114.652 78.8071 114.602C78.8493 114.553 78.8774 114.511 78.9055 114.455C78.9336 114.406 78.9618 114.356 78.9829 114.3C79.004 114.237 79.011 114.174 79.025 114.11C79.0321 114.075 79.0461 114.04 79.0461 113.998V109.118C79.0461 109.097 79.0391 109.083 79.0321 109.069C79.0321 109.027 79.025 108.985 79.018 108.949C79.011 108.907 78.9969 108.865 78.9829 108.823C78.9688 108.781 78.9547 108.745 78.9407 108.71C78.9336 108.696 78.9336 108.675 78.9196 108.654C78.9125 108.64 78.8915 108.633 78.8844 108.612C78.8633 108.577 78.8352 108.549 78.8071 108.513C78.779 108.478 78.7508 108.45 78.7157 108.422C78.6875 108.394 78.6524 108.373 78.6243 108.352C78.6102 108.338 78.5961 108.324 78.5821 108.31L66.5446 101.363L68.1196 92.8687L85.9579 103.163L92.9329 138.974L77.7174 147.763C77.7033 147.77 77.6892 147.791 77.6752 147.798C77.64 147.819 77.6119 147.847 77.5767 147.875C77.5416 147.903 77.5135 147.931 77.4853 147.967C77.4572 147.995 77.4361 148.03 77.408 148.065C77.401 148.079 77.3799 148.086 77.3728 148.107C77.3658 148.121 77.3658 148.142 77.3588 148.163C77.3377 148.199 77.3236 148.234 77.3095 148.276C77.2955 148.318 77.2885 148.36 77.2744 148.402C77.2674 148.445 77.2603 148.48 77.2603 148.522C77.2603 148.543 77.2533 148.557 77.2533 148.578V153.479C77.2533 153.521 77.2674 153.556 77.2744 153.592C77.2814 153.655 77.2885 153.718 77.3095 153.781C77.3306 153.838 77.3588 153.887 77.3869 153.936C77.415 153.985 77.4431 154.035 77.4853 154.084C77.5275 154.133 77.5767 154.168 77.626 154.21C77.6541 154.231 77.6752 154.267 77.7103 154.288L102.889 168.821H102.896C102.91 168.828 102.931 168.828 102.952 168.835C103.079 168.899 103.212 168.941 103.36 168.941C103.416 168.941 103.472 168.934 103.522 168.927C103.599 168.913 103.669 168.878 103.74 168.842C103.761 168.828 103.796 168.835 103.817 168.821H103.824L137.961 149.113C137.968 149.106 137.975 149.099 137.982 149.099C138.038 149.064 138.087 149.015 138.137 148.965C138.172 148.93 138.221 148.902 138.249 148.853C138.284 148.804 138.298 148.754 138.327 148.698C138.355 148.642 138.383 148.593 138.404 148.529C138.418 148.48 138.411 148.431 138.411 148.375C138.418 148.304 138.425 148.241 138.418 148.171V148.143L130.001 101.638L140.851 95.3731C140.886 95.352 140.9 95.3238 140.935 95.3027C140.984 95.2606 141.033 95.2254 141.076 95.1762C141.118 95.134 141.146 95.0848 141.174 95.0356C141.202 94.9863 141.23 94.9371 141.251 94.8738C141.272 94.8176 141.28 94.7543 141.294 94.6981" fill="white"/>
</svg>
